<mxfile host="app.diagrams.net" agent="Mozilla/5.0 (Windows NT 10.0; Win64; x64; rv:135.0) Gecko/20100101 Firefox/135.0" version="26.0.10">
  <diagram id="C5RBs43oDa-KdzZeNtuy" name="Page-1">
    <mxGraphModel dx="1947" dy="1639" grid="1" gridSize="10" guides="1" tooltips="1" connect="1" arrows="1" fold="1" page="1" pageScale="1" pageWidth="827" pageHeight="1169" math="0" shadow="0">
      <root>
        <mxCell id="WIyWlLk6GJQsqaUBKTNV-0" />
        <mxCell id="WIyWlLk6GJQsqaUBKTNV-1" parent="WIyWlLk6GJQsqaUBKTNV-0" />
        <mxCell id="zkfFHV4jXpPFQw0GAbJ--0" value="Roles" style="swimlane;fontStyle=2;align=center;verticalAlign=top;childLayout=stackLayout;horizontal=1;startSize=26;horizontalStack=0;resizeParent=1;resizeLast=0;collapsible=1;marginBottom=0;rounded=0;shadow=0;strokeWidth=1;" parent="WIyWlLk6GJQsqaUBKTNV-1" vertex="1">
          <mxGeometry x="-493" y="160" width="240" height="80" as="geometry">
            <mxRectangle x="230" y="140" width="160" height="26" as="alternateBounds" />
          </mxGeometry>
        </mxCell>
        <mxCell id="zkfFHV4jXpPFQw0GAbJ--1" value="rol_id INT (PK),&#xa;tipo VARCHAR(50) NOT NULL UNIQUE," style="text;align=left;verticalAlign=top;spacingLeft=4;spacingRight=4;overflow=hidden;rotatable=0;points=[[0,0.5],[1,0.5]];portConstraint=eastwest;" parent="zkfFHV4jXpPFQw0GAbJ--0" vertex="1">
          <mxGeometry y="26" width="240" height="54" as="geometry" />
        </mxCell>
        <mxCell id="quxACp_E_g0UHVCwFlpj-0" value="Usuarios" style="swimlane;fontStyle=2;align=center;verticalAlign=top;childLayout=stackLayout;horizontal=1;startSize=26;horizontalStack=0;resizeParent=1;resizeLast=0;collapsible=1;marginBottom=0;rounded=0;shadow=0;strokeWidth=1;" vertex="1" parent="WIyWlLk6GJQsqaUBKTNV-1">
          <mxGeometry x="30" y="80" width="230" height="190" as="geometry">
            <mxRectangle x="230" y="140" width="160" height="26" as="alternateBounds" />
          </mxGeometry>
        </mxCell>
        <mxCell id="quxACp_E_g0UHVCwFlpj-1" value="usuario_id INT (PK),&#xa;nombre VARCHAR(100) NOT NULL,&#xa;email VARCHAR(100) UNIQUE,&#xa;telefono VARCHAR(20),&#xa;direccion TEXT,&#xa;fecha_nacimiento DATE,&#xa;activo BOOLEAN DEFAULT TRUE,&#xa;rol_id INT NOT NULL (FK),&#xa;alergias VARCHAR(100),&#xa;antecedentes_medicos VARCHAR(255),&#xa;" style="text;align=left;verticalAlign=top;spacingLeft=4;spacingRight=4;overflow=hidden;rotatable=0;points=[[0,0.5],[1,0.5]];portConstraint=eastwest;" vertex="1" parent="quxACp_E_g0UHVCwFlpj-0">
          <mxGeometry y="26" width="230" height="164" as="geometry" />
        </mxCell>
        <mxCell id="quxACp_E_g0UHVCwFlpj-2" style="edgeStyle=orthogonalEdgeStyle;rounded=0;orthogonalLoop=1;jettySize=auto;html=1;entryX=0.013;entryY=0.421;entryDx=0;entryDy=0;entryPerimeter=0;" edge="1" parent="WIyWlLk6GJQsqaUBKTNV-1" source="zkfFHV4jXpPFQw0GAbJ--0" target="quxACp_E_g0UHVCwFlpj-1">
          <mxGeometry relative="1" as="geometry">
            <Array as="points">
              <mxPoint x="-130" y="200" />
              <mxPoint x="-130" y="175" />
            </Array>
          </mxGeometry>
        </mxCell>
        <mxCell id="quxACp_E_g0UHVCwFlpj-8" style="edgeStyle=orthogonalEdgeStyle;rounded=0;orthogonalLoop=1;jettySize=auto;html=1;entryX=0.5;entryY=1;entryDx=0;entryDy=0;" edge="1" parent="WIyWlLk6GJQsqaUBKTNV-1" source="quxACp_E_g0UHVCwFlpj-3" target="quxACp_E_g0UHVCwFlpj-5">
          <mxGeometry relative="1" as="geometry" />
        </mxCell>
        <mxCell id="quxACp_E_g0UHVCwFlpj-3" value="Especialidades" style="swimlane;fontStyle=2;align=center;verticalAlign=top;childLayout=stackLayout;horizontal=1;startSize=26;horizontalStack=0;resizeParent=1;resizeLast=0;collapsible=1;marginBottom=0;rounded=0;shadow=0;strokeWidth=1;" vertex="1" parent="WIyWlLk6GJQsqaUBKTNV-1">
          <mxGeometry x="637.5" y="260" width="265" height="80" as="geometry">
            <mxRectangle x="230" y="140" width="160" height="26" as="alternateBounds" />
          </mxGeometry>
        </mxCell>
        <mxCell id="quxACp_E_g0UHVCwFlpj-4" value="especialidad_id INT (PK),&#xa;nombre VARCHAR(100) NOT NULL UNIQUE," style="text;align=left;verticalAlign=top;spacingLeft=4;spacingRight=4;overflow=hidden;rotatable=0;points=[[0,0.5],[1,0.5]];portConstraint=eastwest;" vertex="1" parent="quxACp_E_g0UHVCwFlpj-3">
          <mxGeometry y="26" width="265" height="54" as="geometry" />
        </mxCell>
        <mxCell id="quxACp_E_g0UHVCwFlpj-11" style="edgeStyle=orthogonalEdgeStyle;rounded=0;orthogonalLoop=1;jettySize=auto;html=1;entryX=0.5;entryY=1;entryDx=0;entryDy=0;" edge="1" parent="WIyWlLk6GJQsqaUBKTNV-1" source="quxACp_E_g0UHVCwFlpj-5" target="quxACp_E_g0UHVCwFlpj-9">
          <mxGeometry relative="1" as="geometry" />
        </mxCell>
        <mxCell id="quxACp_E_g0UHVCwFlpj-5" value="Medicos" style="swimlane;fontStyle=2;align=center;verticalAlign=top;childLayout=stackLayout;horizontal=1;startSize=26;horizontalStack=0;resizeParent=1;resizeLast=0;collapsible=1;marginBottom=0;rounded=0;shadow=0;strokeWidth=1;" vertex="1" parent="WIyWlLk6GJQsqaUBKTNV-1">
          <mxGeometry x="610" y="95" width="320" height="120" as="geometry">
            <mxRectangle x="230" y="140" width="160" height="26" as="alternateBounds" />
          </mxGeometry>
        </mxCell>
        <mxCell id="quxACp_E_g0UHVCwFlpj-6" value="medico_id INT (PK),&#xa;usuario_id INT NOT NULL UNIQUE (FK),&#xa;especialidad_id INT NOT NULL (FK),&#xa;sueldo DECIMAL(10,2) NOT NULL CHECK (sueldo &gt; 0),&#xa;matricula VARCHAR(50) UNIQUE NOT NULL," style="text;align=left;verticalAlign=top;spacingLeft=4;spacingRight=4;overflow=hidden;rotatable=0;points=[[0,0.5],[1,0.5]];portConstraint=eastwest;" vertex="1" parent="quxACp_E_g0UHVCwFlpj-5">
          <mxGeometry y="26" width="320" height="94" as="geometry" />
        </mxCell>
        <mxCell id="quxACp_E_g0UHVCwFlpj-9" value="Horarios_laborales" style="swimlane;fontStyle=2;align=center;verticalAlign=top;childLayout=stackLayout;horizontal=1;startSize=26;horizontalStack=0;resizeParent=1;resizeLast=0;collapsible=1;marginBottom=0;rounded=0;shadow=0;strokeWidth=1;" vertex="1" parent="WIyWlLk6GJQsqaUBKTNV-1">
          <mxGeometry x="603.75" y="-100" width="332.5" height="130" as="geometry">
            <mxRectangle x="230" y="140" width="160" height="26" as="alternateBounds" />
          </mxGeometry>
        </mxCell>
        <mxCell id="quxACp_E_g0UHVCwFlpj-10" value="horario_id INT (PK),&#xa;medico_id INT NOT NULL (FK),&#xa;dia TINYINT NOT NULL CHECK (dia BETWEEN 1 AND 7),&#xa;hora_inicio TIME NOT NULL,&#xa;hora_fin TIME NOT NULL,&#xa;UNIQUE (medico_id, dia, hora_inicio, hora_fin)," style="text;align=left;verticalAlign=top;spacingLeft=4;spacingRight=4;overflow=hidden;rotatable=0;points=[[0,0.5],[1,0.5]];portConstraint=eastwest;" vertex="1" parent="quxACp_E_g0UHVCwFlpj-9">
          <mxGeometry y="26" width="332.5" height="104" as="geometry" />
        </mxCell>
        <mxCell id="quxACp_E_g0UHVCwFlpj-18" style="edgeStyle=orthogonalEdgeStyle;rounded=0;orthogonalLoop=1;jettySize=auto;html=1;entryX=0.5;entryY=1;entryDx=0;entryDy=0;" edge="1" parent="WIyWlLk6GJQsqaUBKTNV-1" source="quxACp_E_g0UHVCwFlpj-12" target="quxACp_E_g0UHVCwFlpj-14">
          <mxGeometry relative="1" as="geometry" />
        </mxCell>
        <mxCell id="quxACp_E_g0UHVCwFlpj-12" value="Servicios_tipos " style="swimlane;fontStyle=2;align=center;verticalAlign=top;childLayout=stackLayout;horizontal=1;startSize=26;horizontalStack=0;resizeParent=1;resizeLast=0;collapsible=1;marginBottom=0;rounded=0;shadow=0;strokeWidth=1;" vertex="1" parent="WIyWlLk6GJQsqaUBKTNV-1">
          <mxGeometry x="665" y="475" width="265" height="80" as="geometry">
            <mxRectangle x="230" y="140" width="160" height="26" as="alternateBounds" />
          </mxGeometry>
        </mxCell>
        <mxCell id="quxACp_E_g0UHVCwFlpj-13" value="servicio_tipo_id INT (PK),&#xa;nombre VARCHAR(50) NOT NULL UNIQUE," style="text;align=left;verticalAlign=top;spacingLeft=4;spacingRight=4;overflow=hidden;rotatable=0;points=[[0,0.5],[1,0.5]];portConstraint=eastwest;" vertex="1" parent="quxACp_E_g0UHVCwFlpj-12">
          <mxGeometry y="26" width="265" height="54" as="geometry" />
        </mxCell>
        <mxCell id="quxACp_E_g0UHVCwFlpj-14" value="Servicios" style="swimlane;fontStyle=2;align=center;verticalAlign=top;childLayout=stackLayout;horizontal=1;startSize=26;horizontalStack=0;resizeParent=1;resizeLast=0;collapsible=1;marginBottom=0;rounded=0;shadow=0;strokeWidth=1;" vertex="1" parent="WIyWlLk6GJQsqaUBKTNV-1">
          <mxGeometry x="273.75" y="290" width="330" height="150" as="geometry">
            <mxRectangle x="230" y="140" width="160" height="26" as="alternateBounds" />
          </mxGeometry>
        </mxCell>
        <mxCell id="quxACp_E_g0UHVCwFlpj-15" value="servicio_id INT (PK),&#xa;nombre VARCHAR(100) NOT NULL UNIQUE,&#xa;tipo_id INT NOT NULL (FK),&#xa;especialidad_id INT NULL (FK),&#xa;descripcion TEXT,&#xa;precio DECIMAL(10,2) NOT NULL CHECK (precio &gt;= 0),&#xa;duracion_estimada INT NOT NULL,&#xa;costo_servicio DECIMAL(9,2) NOT NULL" style="text;align=left;verticalAlign=top;spacingLeft=4;spacingRight=4;overflow=hidden;rotatable=0;points=[[0,0.5],[1,0.5]];portConstraint=eastwest;" vertex="1" parent="quxACp_E_g0UHVCwFlpj-14">
          <mxGeometry y="26" width="330" height="124" as="geometry" />
        </mxCell>
        <mxCell id="quxACp_E_g0UHVCwFlpj-16" style="edgeStyle=orthogonalEdgeStyle;rounded=0;orthogonalLoop=1;jettySize=auto;html=1;entryX=0.5;entryY=1;entryDx=0;entryDy=0;" edge="1" parent="WIyWlLk6GJQsqaUBKTNV-1" source="quxACp_E_g0UHVCwFlpj-15" target="quxACp_E_g0UHVCwFlpj-3">
          <mxGeometry relative="1" as="geometry" />
        </mxCell>
        <mxCell id="quxACp_E_g0UHVCwFlpj-50" style="edgeStyle=orthogonalEdgeStyle;rounded=0;orthogonalLoop=1;jettySize=auto;html=1;entryX=0;entryY=0.5;entryDx=0;entryDy=0;" edge="1" parent="WIyWlLk6GJQsqaUBKTNV-1" source="quxACp_E_g0UHVCwFlpj-19" target="quxACp_E_g0UHVCwFlpj-22">
          <mxGeometry relative="1" as="geometry" />
        </mxCell>
        <mxCell id="quxACp_E_g0UHVCwFlpj-19" value="Paquetes" style="swimlane;fontStyle=2;align=center;verticalAlign=top;childLayout=stackLayout;horizontal=1;startSize=26;horizontalStack=0;resizeParent=1;resizeLast=0;collapsible=1;marginBottom=0;rounded=0;shadow=0;strokeWidth=1;" vertex="1" parent="WIyWlLk6GJQsqaUBKTNV-1">
          <mxGeometry x="-330" y="267.5" width="180" height="65" as="geometry">
            <mxRectangle x="230" y="140" width="160" height="26" as="alternateBounds" />
          </mxGeometry>
        </mxCell>
        <mxCell id="quxACp_E_g0UHVCwFlpj-20" value="codigo VARCHAR(50) (PK)," style="text;align=left;verticalAlign=top;spacingLeft=4;spacingRight=4;overflow=hidden;rotatable=0;points=[[0,0.5],[1,0.5]];portConstraint=eastwest;" vertex="1" parent="quxACp_E_g0UHVCwFlpj-19">
          <mxGeometry y="26" width="180" height="34" as="geometry" />
        </mxCell>
        <mxCell id="quxACp_E_g0UHVCwFlpj-49" style="edgeStyle=orthogonalEdgeStyle;rounded=0;orthogonalLoop=1;jettySize=auto;html=1;entryX=0;entryY=0.5;entryDx=0;entryDy=0;" edge="1" parent="WIyWlLk6GJQsqaUBKTNV-1" source="quxACp_E_g0UHVCwFlpj-21" target="quxACp_E_g0UHVCwFlpj-15">
          <mxGeometry relative="1" as="geometry" />
        </mxCell>
        <mxCell id="quxACp_E_g0UHVCwFlpj-21" value="Paquetes_servicios" style="swimlane;fontStyle=2;align=center;verticalAlign=top;childLayout=stackLayout;horizontal=1;startSize=26;horizontalStack=0;resizeParent=1;resizeLast=0;collapsible=1;marginBottom=0;rounded=0;shadow=0;strokeWidth=1;" vertex="1" parent="WIyWlLk6GJQsqaUBKTNV-1">
          <mxGeometry x="-110" y="323" width="280" height="110" as="geometry">
            <mxRectangle x="230" y="140" width="160" height="26" as="alternateBounds" />
          </mxGeometry>
        </mxCell>
        <mxCell id="quxACp_E_g0UHVCwFlpj-22" value="paquete_servicio_id INT (PK),&#xa;servicio_id INT NOT NULL (FK),&#xa;paquete_codigo VARCHAR(50) NOT NULL (FK),&#xa;UNIQUE (servicio_id, paquete_codigo)," style="text;align=left;verticalAlign=top;spacingLeft=4;spacingRight=4;overflow=hidden;rotatable=0;points=[[0,0.5],[1,0.5]];portConstraint=eastwest;" vertex="1" parent="quxACp_E_g0UHVCwFlpj-21">
          <mxGeometry y="26" width="280" height="84" as="geometry" />
        </mxCell>
        <mxCell id="quxACp_E_g0UHVCwFlpj-34" style="edgeStyle=orthogonalEdgeStyle;rounded=0;orthogonalLoop=1;jettySize=auto;html=1;entryX=0.5;entryY=0;entryDx=0;entryDy=0;" edge="1" parent="WIyWlLk6GJQsqaUBKTNV-1" source="quxACp_E_g0UHVCwFlpj-28" target="quxACp_E_g0UHVCwFlpj-0">
          <mxGeometry relative="1" as="geometry" />
        </mxCell>
        <mxCell id="quxACp_E_g0UHVCwFlpj-28" value="Turnos" style="swimlane;fontStyle=2;align=center;verticalAlign=top;childLayout=stackLayout;horizontal=1;startSize=26;horizontalStack=0;resizeParent=1;resizeLast=0;collapsible=1;marginBottom=0;rounded=0;shadow=0;strokeWidth=1;" vertex="1" parent="WIyWlLk6GJQsqaUBKTNV-1">
          <mxGeometry x="-20" y="-150" width="330" height="190" as="geometry">
            <mxRectangle x="230" y="140" width="160" height="26" as="alternateBounds" />
          </mxGeometry>
        </mxCell>
        <mxCell id="quxACp_E_g0UHVCwFlpj-29" value="turno_id INT (PK),&#xa;fecha DATE NOT NULL,&#xa;hora TIME NOT NULL,&#xa;paciente_id INT NOT NULL (FK),&#xa;medico_id INT NOT NULL (FK),&#xa;servicio_id INT NOT NULL (FK),&#xa;paquete_id VARCHAR(50) NULL (FK),&#xa;pagado BOOLEAN DEFAULT FALSE,&#xa;estado VARCHAR(20) NOT NULL DEFAULT &#39;pendiente&#39;,&#xa;UNIQUE (medico_id, fecha, hora)," style="text;align=left;verticalAlign=top;spacingLeft=4;spacingRight=4;overflow=hidden;rotatable=0;points=[[0,0.5],[1,0.5]];portConstraint=eastwest;" vertex="1" parent="quxACp_E_g0UHVCwFlpj-28">
          <mxGeometry y="26" width="330" height="164" as="geometry" />
        </mxCell>
        <mxCell id="quxACp_E_g0UHVCwFlpj-32" style="edgeStyle=orthogonalEdgeStyle;rounded=0;orthogonalLoop=1;jettySize=auto;html=1;entryX=-0.006;entryY=0.043;entryDx=0;entryDy=0;entryPerimeter=0;" edge="1" parent="WIyWlLk6GJQsqaUBKTNV-1" source="quxACp_E_g0UHVCwFlpj-29" target="quxACp_E_g0UHVCwFlpj-6">
          <mxGeometry relative="1" as="geometry">
            <Array as="points">
              <mxPoint x="550" y="-42" />
              <mxPoint x="550" y="125" />
            </Array>
          </mxGeometry>
        </mxCell>
        <mxCell id="quxACp_E_g0UHVCwFlpj-33" style="edgeStyle=orthogonalEdgeStyle;rounded=0;orthogonalLoop=1;jettySize=auto;html=1;entryX=0.5;entryY=0;entryDx=0;entryDy=0;" edge="1" parent="WIyWlLk6GJQsqaUBKTNV-1" source="quxACp_E_g0UHVCwFlpj-29" target="quxACp_E_g0UHVCwFlpj-14">
          <mxGeometry relative="1" as="geometry" />
        </mxCell>
        <mxCell id="quxACp_E_g0UHVCwFlpj-35" style="edgeStyle=orthogonalEdgeStyle;rounded=0;orthogonalLoop=1;jettySize=auto;html=1;entryX=1.009;entryY=0.305;entryDx=0;entryDy=0;entryPerimeter=0;" edge="1" parent="WIyWlLk6GJQsqaUBKTNV-1" source="quxACp_E_g0UHVCwFlpj-5" target="quxACp_E_g0UHVCwFlpj-1">
          <mxGeometry relative="1" as="geometry" />
        </mxCell>
        <mxCell id="quxACp_E_g0UHVCwFlpj-36" style="edgeStyle=orthogonalEdgeStyle;rounded=0;orthogonalLoop=1;jettySize=auto;html=1;" edge="1" parent="WIyWlLk6GJQsqaUBKTNV-1" source="quxACp_E_g0UHVCwFlpj-29">
          <mxGeometry relative="1" as="geometry">
            <mxPoint x="-150" y="300" as="targetPoint" />
            <Array as="points">
              <mxPoint x="-90" y="-42" />
              <mxPoint x="-90" y="300" />
              <mxPoint x="-150" y="300" />
            </Array>
          </mxGeometry>
        </mxCell>
        <mxCell id="quxACp_E_g0UHVCwFlpj-37" value="Descuento" style="swimlane;fontStyle=2;align=center;verticalAlign=top;childLayout=stackLayout;horizontal=1;startSize=26;horizontalStack=0;resizeParent=1;resizeLast=0;collapsible=1;marginBottom=0;rounded=0;shadow=0;strokeWidth=1;" vertex="1" parent="WIyWlLk6GJQsqaUBKTNV-1">
          <mxGeometry x="260" y="-340" width="500" height="90" as="geometry">
            <mxRectangle x="230" y="140" width="160" height="26" as="alternateBounds" />
          </mxGeometry>
        </mxCell>
        <mxCell id="quxACp_E_g0UHVCwFlpj-38" value="descuento_id INT AUTO_INCREMENT PRIMARY KEY,&#xa;tipo VARCHAR(50) NOT NULL UNIQUE,&#xa;descuento DECIMAL(5,2) NOT NULL CHECK (descuento &gt;= 0 AND descuento &lt;= 100)," style="text;align=left;verticalAlign=top;spacingLeft=4;spacingRight=4;overflow=hidden;rotatable=0;points=[[0,0.5],[1,0.5]];portConstraint=eastwest;" vertex="1" parent="quxACp_E_g0UHVCwFlpj-37">
          <mxGeometry y="26" width="500" height="64" as="geometry" />
        </mxCell>
        <mxCell id="quxACp_E_g0UHVCwFlpj-39" value="Facturaciones" style="swimlane;fontStyle=2;align=center;verticalAlign=top;childLayout=stackLayout;horizontal=1;startSize=26;horizontalStack=0;resizeParent=1;resizeLast=0;collapsible=1;marginBottom=0;rounded=0;shadow=0;strokeWidth=1;" vertex="1" parent="WIyWlLk6GJQsqaUBKTNV-1">
          <mxGeometry x="-230" y="-360" width="330" height="130" as="geometry">
            <mxRectangle x="230" y="140" width="160" height="26" as="alternateBounds" />
          </mxGeometry>
        </mxCell>
        <mxCell id="quxACp_E_g0UHVCwFlpj-40" value="facturacion_id INT (PK),&#xa;turno_id INT NOT NULL UNIQUE (FK),&#xa;monto DECIMAL(10,2) NOT NULL CHECK (monto &gt;= 0),&#xa;descuento_id INT NULL (FK),&#xa;total DECIMAL(10,2) NOT NULL CHECK (total &gt;= 0),&#xa;metodo_pago VARCHAR(50) NOT NULL," style="text;align=left;verticalAlign=top;spacingLeft=4;spacingRight=4;overflow=hidden;rotatable=0;points=[[0,0.5],[1,0.5]];portConstraint=eastwest;" vertex="1" parent="quxACp_E_g0UHVCwFlpj-39">
          <mxGeometry y="26" width="330" height="104" as="geometry" />
        </mxCell>
        <mxCell id="quxACp_E_g0UHVCwFlpj-41" style="edgeStyle=orthogonalEdgeStyle;rounded=0;orthogonalLoop=1;jettySize=auto;html=1;entryX=-0.003;entryY=0.122;entryDx=0;entryDy=0;entryPerimeter=0;" edge="1" parent="WIyWlLk6GJQsqaUBKTNV-1" source="quxACp_E_g0UHVCwFlpj-39" target="quxACp_E_g0UHVCwFlpj-29">
          <mxGeometry relative="1" as="geometry" />
        </mxCell>
        <mxCell id="quxACp_E_g0UHVCwFlpj-42" style="edgeStyle=orthogonalEdgeStyle;rounded=0;orthogonalLoop=1;jettySize=auto;html=1;entryX=-0.002;entryY=0.297;entryDx=0;entryDy=0;entryPerimeter=0;" edge="1" parent="WIyWlLk6GJQsqaUBKTNV-1" source="quxACp_E_g0UHVCwFlpj-39" target="quxACp_E_g0UHVCwFlpj-38">
          <mxGeometry relative="1" as="geometry" />
        </mxCell>
        <mxCell id="quxACp_E_g0UHVCwFlpj-43" value="Recetas" style="swimlane;fontStyle=2;align=center;verticalAlign=top;childLayout=stackLayout;horizontal=1;startSize=26;horizontalStack=0;resizeParent=1;resizeLast=0;collapsible=1;marginBottom=0;rounded=0;shadow=0;strokeWidth=1;" vertex="1" parent="WIyWlLk6GJQsqaUBKTNV-1">
          <mxGeometry x="-420" y="-130" width="190" height="110" as="geometry">
            <mxRectangle x="230" y="140" width="160" height="26" as="alternateBounds" />
          </mxGeometry>
        </mxCell>
        <mxCell id="quxACp_E_g0UHVCwFlpj-44" value="receta_id INT (PK),&#xa;turno_id INT NOT NULL (FK),&#xa;foto VARCHAR(255) NULL,&#xa;descripcion TEXT NOT NULL," style="text;align=left;verticalAlign=top;spacingLeft=4;spacingRight=4;overflow=hidden;rotatable=0;points=[[0,0.5],[1,0.5]];portConstraint=eastwest;" vertex="1" parent="quxACp_E_g0UHVCwFlpj-43">
          <mxGeometry y="26" width="190" height="84" as="geometry" />
        </mxCell>
        <mxCell id="quxACp_E_g0UHVCwFlpj-45" style="edgeStyle=orthogonalEdgeStyle;rounded=0;orthogonalLoop=1;jettySize=auto;html=1;entryX=-0.009;entryY=0.299;entryDx=0;entryDy=0;entryPerimeter=0;" edge="1" parent="WIyWlLk6GJQsqaUBKTNV-1" source="quxACp_E_g0UHVCwFlpj-43" target="quxACp_E_g0UHVCwFlpj-29">
          <mxGeometry relative="1" as="geometry" />
        </mxCell>
        <mxCell id="quxACp_E_g0UHVCwFlpj-46" value="Recepcionistas" style="swimlane;fontStyle=2;align=center;verticalAlign=top;childLayout=stackLayout;horizontal=1;startSize=26;horizontalStack=0;resizeParent=1;resizeLast=0;collapsible=1;marginBottom=0;rounded=0;shadow=0;strokeWidth=1;" vertex="1" parent="WIyWlLk6GJQsqaUBKTNV-1">
          <mxGeometry x="-573" y="40" width="320" height="90" as="geometry">
            <mxRectangle x="230" y="140" width="160" height="26" as="alternateBounds" />
          </mxGeometry>
        </mxCell>
        <mxCell id="quxACp_E_g0UHVCwFlpj-47" value="recepcionista_id INT (PK),&#xa;usuario_id INT NOT NULL UNIQUE,&#xa;sueldo DECIMAL(10,2) NOT NULL CHECK (sueldo &gt; 0)," style="text;align=left;verticalAlign=top;spacingLeft=4;spacingRight=4;overflow=hidden;rotatable=0;points=[[0,0.5],[1,0.5]];portConstraint=eastwest;" vertex="1" parent="quxACp_E_g0UHVCwFlpj-46">
          <mxGeometry y="26" width="320" height="64" as="geometry" />
        </mxCell>
        <mxCell id="quxACp_E_g0UHVCwFlpj-48" style="edgeStyle=orthogonalEdgeStyle;rounded=0;orthogonalLoop=1;jettySize=auto;html=1;entryX=0.013;entryY=0.22;entryDx=0;entryDy=0;entryPerimeter=0;" edge="1" parent="WIyWlLk6GJQsqaUBKTNV-1" source="quxACp_E_g0UHVCwFlpj-46" target="quxACp_E_g0UHVCwFlpj-1">
          <mxGeometry relative="1" as="geometry">
            <Array as="points">
              <mxPoint x="-130" y="85" />
              <mxPoint x="-130" y="142" />
            </Array>
          </mxGeometry>
        </mxCell>
      </root>
    </mxGraphModel>
  </diagram>
</mxfile>
